<mxfile host="app.diagrams.net" modified="2024-01-11T03:08:42.183Z" agent="Mozilla/5.0 (X11; Linux x86_64) AppleWebKit/537.36 (KHTML, like Gecko) Chrome/118.0.0.0 Safari/537.36" etag="F8RsVM-WLXYD7lqN1HdL" version="22.1.18" type="github">
  <diagram name="Page-1" id="HckR_S5y-wYjdkCV66dG">
    <mxGraphModel dx="2204" dy="-3629" grid="1" gridSize="10" guides="1" tooltips="1" connect="1" arrows="1" fold="1" page="1" pageScale="1" pageWidth="850" pageHeight="1100" math="0" shadow="0">
      <root>
        <mxCell id="0" />
        <mxCell id="1" parent="0" />
        <mxCell id="1THsGdNRJvXmSzpAJEia-1" value="" style="rounded=0;whiteSpace=wrap;html=1;" vertex="1" parent="1">
          <mxGeometry x="-216" y="4691" width="434" height="863" as="geometry" />
        </mxCell>
        <mxCell id="1THsGdNRJvXmSzpAJEia-2" style="edgeStyle=orthogonalEdgeStyle;rounded=0;orthogonalLoop=1;jettySize=auto;html=1;exitX=0.5;exitY=1;exitDx=0;exitDy=0;entryX=0.5;entryY=0;entryDx=0;entryDy=0;" edge="1" parent="1" source="1THsGdNRJvXmSzpAJEia-5" target="1THsGdNRJvXmSzpAJEia-7">
          <mxGeometry relative="1" as="geometry">
            <mxPoint x="-7" y="4858" as="targetPoint" />
          </mxGeometry>
        </mxCell>
        <mxCell id="1THsGdNRJvXmSzpAJEia-3" style="edgeStyle=orthogonalEdgeStyle;rounded=0;orthogonalLoop=1;jettySize=auto;html=1;exitX=0;exitY=0.5;exitDx=0;exitDy=0;entryX=0.5;entryY=0;entryDx=0;entryDy=0;" edge="1" parent="1" source="1THsGdNRJvXmSzpAJEia-5" target="1THsGdNRJvXmSzpAJEia-10">
          <mxGeometry relative="1" as="geometry">
            <Array as="points">
              <mxPoint x="-191" y="4778" />
              <mxPoint x="-191" y="5422" />
              <mxPoint x="-7" y="5422" />
            </Array>
          </mxGeometry>
        </mxCell>
        <mxCell id="1THsGdNRJvXmSzpAJEia-4" value="N" style="edgeLabel;html=1;align=center;verticalAlign=middle;resizable=0;points=[];" vertex="1" connectable="0" parent="1THsGdNRJvXmSzpAJEia-3">
          <mxGeometry x="0.0505" y="-1" relative="1" as="geometry">
            <mxPoint as="offset" />
          </mxGeometry>
        </mxCell>
        <mxCell id="1THsGdNRJvXmSzpAJEia-5" value="iter &amp;lt; warm_up + iteration" style="rhombus;whiteSpace=wrap;html=1;" vertex="1" parent="1">
          <mxGeometry x="-124" y="4738" width="234" height="80" as="geometry" />
        </mxCell>
        <mxCell id="1THsGdNRJvXmSzpAJEia-6" style="edgeStyle=orthogonalEdgeStyle;rounded=0;orthogonalLoop=1;jettySize=auto;html=1;exitX=0.5;exitY=1;exitDx=0;exitDy=0;entryX=0.5;entryY=0;entryDx=0;entryDy=0;" edge="1" parent="1" source="1THsGdNRJvXmSzpAJEia-7" target="1THsGdNRJvXmSzpAJEia-9">
          <mxGeometry relative="1" as="geometry" />
        </mxCell>
        <mxCell id="1THsGdNRJvXmSzpAJEia-7" value="gpt_decoder-&amp;gt;resetGenerateProgress()&lt;br&gt;gpt_decoder-&amp;gt;forwardContext()" style="rounded=0;whiteSpace=wrap;html=1;" vertex="1" parent="1">
          <mxGeometry x="-129.5" y="4856" width="245" height="60" as="geometry" />
        </mxCell>
        <mxCell id="1THsGdNRJvXmSzpAJEia-8" style="edgeStyle=orthogonalEdgeStyle;rounded=0;orthogonalLoop=1;jettySize=auto;html=1;exitX=0.5;exitY=1;exitDx=0;exitDy=0;entryX=0.5;entryY=0;entryDx=0;entryDy=0;" edge="1" parent="1" source="1THsGdNRJvXmSzpAJEia-9" target="1THsGdNRJvXmSzpAJEia-18">
          <mxGeometry relative="1" as="geometry" />
        </mxCell>
        <mxCell id="1THsGdNRJvXmSzpAJEia-9" value="CNRT_CHECK(cnrtQueueSync(queue));" style="rounded=0;whiteSpace=wrap;html=1;" vertex="1" parent="1">
          <mxGeometry x="-130.5" y="4954" width="247" height="39" as="geometry" />
        </mxCell>
        <mxCell id="1THsGdNRJvXmSzpAJEia-10" value="gpt_decoder-&amp;gt;sync()" style="rounded=0;whiteSpace=wrap;html=1;" vertex="1" parent="1">
          <mxGeometry x="-72" y="5477" width="130" height="48" as="geometry" />
        </mxCell>
        <mxCell id="1THsGdNRJvXmSzpAJEia-11" style="edgeStyle=orthogonalEdgeStyle;rounded=0;orthogonalLoop=1;jettySize=auto;html=1;exitX=0.5;exitY=1;exitDx=0;exitDy=0;entryX=1;entryY=0.5;entryDx=0;entryDy=0;" edge="1" parent="1" source="1THsGdNRJvXmSzpAJEia-13" target="1THsGdNRJvXmSzpAJEia-18">
          <mxGeometry relative="1" as="geometry">
            <Array as="points">
              <mxPoint x="-7" y="5355" />
              <mxPoint x="150" y="5355" />
              <mxPoint x="150" y="5068" />
            </Array>
          </mxGeometry>
        </mxCell>
        <mxCell id="1THsGdNRJvXmSzpAJEia-12" value="Y" style="edgeLabel;html=1;align=center;verticalAlign=middle;resizable=0;points=[];" vertex="1" connectable="0" parent="1THsGdNRJvXmSzpAJEia-11">
          <mxGeometry x="0.3186" y="2" relative="1" as="geometry">
            <mxPoint as="offset" />
          </mxGeometry>
        </mxCell>
        <mxCell id="1THsGdNRJvXmSzpAJEia-13" value="bt_context_logitprocess-&amp;gt;forward()" style="rounded=0;whiteSpace=wrap;html=1;" vertex="1" parent="1">
          <mxGeometry x="-116" y="5238" width="218" height="60" as="geometry" />
        </mxCell>
        <mxCell id="1THsGdNRJvXmSzpAJEia-14" style="edgeStyle=orthogonalEdgeStyle;rounded=0;orthogonalLoop=1;jettySize=auto;html=1;exitX=0.5;exitY=1;exitDx=0;exitDy=0;entryX=0.5;entryY=0;entryDx=0;entryDy=0;" edge="1" parent="1" source="1THsGdNRJvXmSzpAJEia-18" target="1THsGdNRJvXmSzpAJEia-20">
          <mxGeometry relative="1" as="geometry" />
        </mxCell>
        <mxCell id="1THsGdNRJvXmSzpAJEia-15" style="edgeStyle=orthogonalEdgeStyle;rounded=0;orthogonalLoop=1;jettySize=auto;html=1;exitX=0;exitY=0.5;exitDx=0;exitDy=0;entryX=1;entryY=0.5;entryDx=0;entryDy=0;" edge="1" parent="1" source="1THsGdNRJvXmSzpAJEia-18" target="1THsGdNRJvXmSzpAJEia-5">
          <mxGeometry relative="1" as="geometry">
            <Array as="points">
              <mxPoint x="-155" y="5068" />
              <mxPoint x="-155" y="5385" />
              <mxPoint x="180" y="5385" />
              <mxPoint x="180" y="4778" />
            </Array>
          </mxGeometry>
        </mxCell>
        <mxCell id="1THsGdNRJvXmSzpAJEia-16" value="Y" style="edgeLabel;html=1;align=center;verticalAlign=middle;resizable=0;points=[];" vertex="1" connectable="0" parent="1THsGdNRJvXmSzpAJEia-15">
          <mxGeometry x="0.4978" y="1" relative="1" as="geometry">
            <mxPoint as="offset" />
          </mxGeometry>
        </mxCell>
        <mxCell id="1THsGdNRJvXmSzpAJEia-17" value="N" style="edgeLabel;html=1;align=center;verticalAlign=middle;resizable=0;points=[];" vertex="1" connectable="0" parent="1THsGdNRJvXmSzpAJEia-15">
          <mxGeometry x="-0.7357" y="2" relative="1" as="geometry">
            <mxPoint as="offset" />
          </mxGeometry>
        </mxCell>
        <mxCell id="1THsGdNRJvXmSzpAJEia-18" value="loop_time &amp;lt; output_length" style="rhombus;whiteSpace=wrap;html=1;" vertex="1" parent="1">
          <mxGeometry x="-122" y="5028" width="230" height="80" as="geometry" />
        </mxCell>
        <mxCell id="1THsGdNRJvXmSzpAJEia-19" style="edgeStyle=orthogonalEdgeStyle;rounded=0;orthogonalLoop=1;jettySize=auto;html=1;exitX=0.5;exitY=1;exitDx=0;exitDy=0;entryX=0.5;entryY=0;entryDx=0;entryDy=0;" edge="1" parent="1" source="1THsGdNRJvXmSzpAJEia-20" target="1THsGdNRJvXmSzpAJEia-13">
          <mxGeometry relative="1" as="geometry" />
        </mxCell>
        <mxCell id="1THsGdNRJvXmSzpAJEia-20" value="gpt_decoder-&amp;gt;forwardGenerate()" style="rounded=0;whiteSpace=wrap;html=1;" vertex="1" parent="1">
          <mxGeometry x="-129.5" y="5145" width="245" height="60" as="geometry" />
        </mxCell>
        <mxCell id="1THsGdNRJvXmSzpAJEia-21" style="edgeStyle=orthogonalEdgeStyle;rounded=0;orthogonalLoop=1;jettySize=auto;html=1;exitX=0.5;exitY=1;exitDx=0;exitDy=0;entryX=0.5;entryY=0;entryDx=0;entryDy=0;" edge="1" parent="1" source="1THsGdNRJvXmSzpAJEia-22" target="1THsGdNRJvXmSzpAJEia-24">
          <mxGeometry relative="1" as="geometry" />
        </mxCell>
        <mxCell id="1THsGdNRJvXmSzpAJEia-22" value="&lt;div&gt;依据配置创建gpt_decoder：&lt;/div&gt;&lt;div&gt;bt::GptDecoderSettings gpt_settings = bang_config.convertToGptDecoderSettings();&lt;br&gt;&lt;/div&gt;&lt;div&gt;&lt;br&gt;&lt;/div&gt;&lt;div&gt;gpt_decoder =&lt;/div&gt;&lt;div&gt;&amp;nbsp; &amp;nbsp; &amp;nbsp; std::make_shared&amp;lt;bt::GptTpDecoder&amp;gt;(ctxs, comm, my_rank, mpi_world_size, gpt_settings);&lt;/div&gt;" style="rounded=0;whiteSpace=wrap;html=1;" vertex="1" parent="1">
          <mxGeometry x="496.5" y="4880" width="262" height="120" as="geometry" />
        </mxCell>
        <mxCell id="1THsGdNRJvXmSzpAJEia-23" style="edgeStyle=orthogonalEdgeStyle;rounded=0;orthogonalLoop=1;jettySize=auto;html=1;exitX=0.5;exitY=1;exitDx=0;exitDy=0;entryX=0.5;entryY=0;entryDx=0;entryDy=0;" edge="1" parent="1" source="1THsGdNRJvXmSzpAJEia-24" target="1THsGdNRJvXmSzpAJEia-27">
          <mxGeometry relative="1" as="geometry" />
        </mxCell>
        <mxCell id="1THsGdNRJvXmSzpAJEia-33" style="edgeStyle=orthogonalEdgeStyle;rounded=0;orthogonalLoop=1;jettySize=auto;html=1;exitX=0;exitY=0.5;exitDx=0;exitDy=0;entryX=0.5;entryY=0;entryDx=0;entryDy=0;" edge="1" parent="1" source="1THsGdNRJvXmSzpAJEia-24" target="1THsGdNRJvXmSzpAJEia-30">
          <mxGeometry relative="1" as="geometry">
            <Array as="points">
              <mxPoint x="473" y="5078" />
              <mxPoint x="473" y="5280" />
              <mxPoint x="628" y="5280" />
            </Array>
          </mxGeometry>
        </mxCell>
        <mxCell id="1THsGdNRJvXmSzpAJEia-24" value="batch_loop_time &amp;lt; loop_times" style="rhombus;whiteSpace=wrap;html=1;" vertex="1" parent="1">
          <mxGeometry x="493" y="5038" width="269" height="80" as="geometry" />
        </mxCell>
        <mxCell id="1THsGdNRJvXmSzpAJEia-25" style="rounded=0;orthogonalLoop=1;jettySize=auto;html=1;exitX=0;exitY=0.5;exitDx=0;exitDy=0;dashed=1;" edge="1" parent="1" source="1THsGdNRJvXmSzpAJEia-27" target="1THsGdNRJvXmSzpAJEia-1">
          <mxGeometry relative="1" as="geometry" />
        </mxCell>
        <mxCell id="1THsGdNRJvXmSzpAJEia-26" style="edgeStyle=orthogonalEdgeStyle;rounded=0;orthogonalLoop=1;jettySize=auto;html=1;exitX=0.5;exitY=1;exitDx=0;exitDy=0;entryX=1;entryY=0.5;entryDx=0;entryDy=0;" edge="1" parent="1" source="1THsGdNRJvXmSzpAJEia-27" target="1THsGdNRJvXmSzpAJEia-24">
          <mxGeometry relative="1" as="geometry">
            <Array as="points">
              <mxPoint x="628" y="5250" />
              <mxPoint x="782" y="5250" />
              <mxPoint x="782" y="5078" />
            </Array>
          </mxGeometry>
        </mxCell>
        <mxCell id="1THsGdNRJvXmSzpAJEia-27" value="warm_up &amp;amp;&amp;amp; test" style="rounded=0;whiteSpace=wrap;html=1;" vertex="1" parent="1">
          <mxGeometry x="567.5" y="5141" width="120" height="60" as="geometry" />
        </mxCell>
        <mxCell id="1THsGdNRJvXmSzpAJEia-28" style="edgeStyle=orthogonalEdgeStyle;rounded=0;orthogonalLoop=1;jettySize=auto;html=1;exitX=0.5;exitY=1;exitDx=0;exitDy=0;entryX=0.5;entryY=0;entryDx=0;entryDy=0;" edge="1" parent="1" source="1THsGdNRJvXmSzpAJEia-29" target="1THsGdNRJvXmSzpAJEia-31">
          <mxGeometry relative="1" as="geometry" />
        </mxCell>
        <mxCell id="1THsGdNRJvXmSzpAJEia-29" value="start" style="rounded=1;whiteSpace=wrap;html=1;" vertex="1" parent="1">
          <mxGeometry x="568" y="4660" width="120" height="60" as="geometry" />
        </mxCell>
        <mxCell id="1THsGdNRJvXmSzpAJEia-30" value="finish" style="rounded=1;whiteSpace=wrap;html=1;" vertex="1" parent="1">
          <mxGeometry x="567.5" y="5298" width="120" height="60" as="geometry" />
        </mxCell>
        <mxCell id="1THsGdNRJvXmSzpAJEia-32" style="edgeStyle=orthogonalEdgeStyle;rounded=0;orthogonalLoop=1;jettySize=auto;html=1;exitX=0.5;exitY=1;exitDx=0;exitDy=0;entryX=0.5;entryY=0;entryDx=0;entryDy=0;" edge="1" parent="1" source="1THsGdNRJvXmSzpAJEia-31" target="1THsGdNRJvXmSzpAJEia-22">
          <mxGeometry relative="1" as="geometry" />
        </mxCell>
        <mxCell id="1THsGdNRJvXmSzpAJEia-31" value="&lt;div&gt;&amp;nbsp;获取配置：&amp;nbsp;&lt;/div&gt;&lt;div&gt;BangGptConfig bang_config;&lt;/div&gt;&lt;div&gt;&amp;nbsp; bang_config.loadModelConfig(model_cfg);&lt;/div&gt;&lt;div&gt;bang_config.loadInputConfig(Config(FLAGS_input));&lt;br&gt;&lt;/div&gt;" style="rounded=0;whiteSpace=wrap;html=1;" vertex="1" parent="1">
          <mxGeometry x="474" y="4760" width="307" height="80" as="geometry" />
        </mxCell>
      </root>
    </mxGraphModel>
  </diagram>
</mxfile>
